<svg xmlns="http://www.w3.org/2000/svg" xmlns:xlink="http://www.w3.org/1999/xlink" viewBox="0,0,256,256" width="48px" height="48px"><g fill="#ffd700" fill-rule="nonzero" stroke="none" stroke-width="1" stroke-linecap="butt" stroke-linejoin="miter" stroke-miterlimit="10" stroke-dasharray="" stroke-dashoffset="0" font-family="none" font-weight="none" font-size="none" text-anchor="none" style="mix-blend-mode: normal"><g transform="scale(10.66667,10.66667)"><path d="M20.994,8.699l-5.78,-0.49l-2.261,-5.335c-0.357,-0.841 -1.549,-0.841 -1.906,0l-2.261,5.335l-5.78,0.49c-0.912,0.077 -1.282,1.214 -0.59,1.813l4.391,3.804l-1.319,5.653c-0.208,0.891 0.759,1.594 1.543,1.121l4.969,-2.999l4.969,2.999c0.784,0.473 1.751,-0.23 1.543,-1.121l-1.319,-5.653l4.391,-3.804c0.692,-0.599 0.322,-1.736 -0.59,-1.813zM15.883,12.804l-0.912,0.79l0.274,1.176l0.799,3.426l-3.011,-1.817l-1.033,-0.624v-10.004l1.373,3.239l0.471,1.111l1.202,0.102l3.5,0.297z"></path></g></g></svg>